<mxfile host="app.diagrams.net" agent="Mozilla/5.0 (Windows NT 10.0; Win64; x64) AppleWebKit/537.36 (KHTML, like Gecko) Chrome/135.0.0.0 Safari/537.36" version="26.2.13">
  <diagram name="페이지-1" id="HnOk3otPxTWLIsypYAFh">
    <mxGraphModel dx="1736" dy="863" grid="1" gridSize="10" guides="1" tooltips="1" connect="1" arrows="1" fold="1" page="1" pageScale="1" pageWidth="827" pageHeight="1169" math="0" shadow="0">
      <root>
        <mxCell id="0" />
        <mxCell id="1" parent="0" />
        <mxCell id="muqeLboePYQVuT81V_I5-93" value="사용자" style="swimlane;whiteSpace=wrap;startSize=23;" vertex="1" parent="1">
          <mxGeometry x="101" y="118" width="155.5" height="612" as="geometry" />
        </mxCell>
        <mxCell id="muqeLboePYQVuT81V_I5-94" value="" style="ellipse;shape=startState;fillColor=#000000;strokeColor=#ff0000;" vertex="1" parent="muqeLboePYQVuT81V_I5-93">
          <mxGeometry x="62.75" y="35" width="30" height="30" as="geometry" />
        </mxCell>
        <mxCell id="muqeLboePYQVuT81V_I5-95" value="" style="edgeStyle=elbowEdgeStyle;elbow=horizontal;verticalAlign=bottom;endArrow=open;endSize=8;strokeColor=#FF0000;endFill=1;rounded=0" edge="1" parent="muqeLboePYQVuT81V_I5-93" source="muqeLboePYQVuT81V_I5-94" target="muqeLboePYQVuT81V_I5-96">
          <mxGeometry x="90" y="40" as="geometry">
            <mxPoint x="77.75" y="105" as="targetPoint" />
          </mxGeometry>
        </mxCell>
        <mxCell id="muqeLboePYQVuT81V_I5-96" value="데이터 동기화 요청" style="rounded=1;" vertex="1" parent="muqeLboePYQVuT81V_I5-93">
          <mxGeometry x="22.75" y="92" width="110" height="50" as="geometry" />
        </mxCell>
        <mxCell id="muqeLboePYQVuT81V_I5-97" value="로그인" style="rounded=1;" vertex="1" parent="muqeLboePYQVuT81V_I5-93">
          <mxGeometry x="22.75" y="169.5" width="110" height="50" as="geometry" />
        </mxCell>
        <mxCell id="muqeLboePYQVuT81V_I5-98" value="" style="ellipse;shape=endState;fillColor=#000000;strokeColor=#ff0000" vertex="1" parent="muqeLboePYQVuT81V_I5-93">
          <mxGeometry x="65.5" y="572" width="30" height="30" as="geometry" />
        </mxCell>
        <mxCell id="muqeLboePYQVuT81V_I5-99" value="" style="rhombus;whiteSpace=wrap;html=1;" vertex="1" parent="muqeLboePYQVuT81V_I5-93">
          <mxGeometry x="63" y="512" width="35" height="35" as="geometry" />
        </mxCell>
        <mxCell id="muqeLboePYQVuT81V_I5-100" value="" style="rounded=0;orthogonalLoop=1;jettySize=auto;html=1;fontSize=12;startSize=8;endSize=8;strokeColor=#FF0000;endArrow=open;endFill=0;exitX=0.5;exitY=1;exitDx=0;exitDy=0;entryX=0.5;entryY=0;entryDx=0;entryDy=0;" edge="1" parent="muqeLboePYQVuT81V_I5-93" source="muqeLboePYQVuT81V_I5-99" target="muqeLboePYQVuT81V_I5-98">
          <mxGeometry relative="1" as="geometry">
            <mxPoint x="143" y="239.5" as="sourcePoint" />
            <mxPoint x="202" y="239.5" as="targetPoint" />
          </mxGeometry>
        </mxCell>
        <mxCell id="muqeLboePYQVuT81V_I5-101" value="시스템" style="swimlane;whiteSpace=wrap;container=0;" vertex="1" parent="1">
          <mxGeometry x="256.5" y="118" width="280" height="612" as="geometry" />
        </mxCell>
        <mxCell id="muqeLboePYQVuT81V_I5-102" value="&amp;lt;&amp;lt;두 데이터가 같음&amp;gt;&amp;gt;" style="text;html=1;align=center;verticalAlign=middle;whiteSpace=wrap;rounded=0;" vertex="1" parent="muqeLboePYQVuT81V_I5-101">
          <mxGeometry x="150" y="506" width="117" height="30" as="geometry" />
        </mxCell>
        <mxCell id="muqeLboePYQVuT81V_I5-103" value="" style="rhombus;whiteSpace=wrap;html=1;" vertex="1" parent="muqeLboePYQVuT81V_I5-101">
          <mxGeometry x="77.5" y="177" width="35" height="35" as="geometry" />
        </mxCell>
        <mxCell id="muqeLboePYQVuT81V_I5-104" value="로그인되어&lt;div&gt;있는가?&lt;/div&gt;" style="text;html=1;align=left;verticalAlign=middle;whiteSpace=wrap;rounded=0;" vertex="1" parent="muqeLboePYQVuT81V_I5-101">
          <mxGeometry x="97.5" y="147" width="60" height="30" as="geometry" />
        </mxCell>
        <mxCell id="muqeLboePYQVuT81V_I5-105" value="&amp;lt;&amp;lt;예&amp;gt;&amp;gt;" style="text;html=1;align=left;verticalAlign=middle;whiteSpace=wrap;rounded=0;" vertex="1" parent="muqeLboePYQVuT81V_I5-101">
          <mxGeometry x="97" y="199.5" width="60" height="30" as="geometry" />
        </mxCell>
        <mxCell id="muqeLboePYQVuT81V_I5-106" value="&amp;lt;&amp;lt;아니오&amp;gt;&amp;gt;" style="text;html=1;align=left;verticalAlign=middle;whiteSpace=wrap;rounded=0;" vertex="1" parent="muqeLboePYQVuT81V_I5-101">
          <mxGeometry x="17.5" y="169.5" width="70" height="30" as="geometry" />
        </mxCell>
        <mxCell id="muqeLboePYQVuT81V_I5-107" value="D-Day 앱 데이터 동기화 관련 활동" style="text;html=1;align=left;verticalAlign=middle;whiteSpace=wrap;rounded=0;fontSize=24;" vertex="1" parent="1">
          <mxGeometry x="101" y="80" width="385.5" height="30" as="geometry" />
        </mxCell>
        <mxCell id="muqeLboePYQVuT81V_I5-108" value="서버 시스템" style="swimlane;whiteSpace=wrap;startSize=23;" vertex="1" parent="1">
          <mxGeometry x="536.5" y="118" width="153.5" height="612" as="geometry" />
        </mxCell>
        <mxCell id="muqeLboePYQVuT81V_I5-109" value="서버에&#xa;데이터 업로드" style="rounded=1;" vertex="1" parent="muqeLboePYQVuT81V_I5-108">
          <mxGeometry x="-241" y="472" width="110" height="50" as="geometry" />
        </mxCell>
        <mxCell id="muqeLboePYQVuT81V_I5-110" value="서버로부터&#xa;데이터 다운로드" style="rounded=1;" vertex="1" parent="muqeLboePYQVuT81V_I5-108">
          <mxGeometry x="-241" y="374.5" width="110" height="50" as="geometry" />
        </mxCell>
        <mxCell id="muqeLboePYQVuT81V_I5-111" value="&amp;lt;&amp;lt;서버 데이터&amp;gt;&amp;gt;" style="text;html=1;align=center;verticalAlign=middle;whiteSpace=wrap;rounded=0;" vertex="1" parent="muqeLboePYQVuT81V_I5-108">
          <mxGeometry x="-131" y="374.5" width="90" height="30" as="geometry" />
        </mxCell>
        <mxCell id="muqeLboePYQVuT81V_I5-112" value="&amp;lt;&amp;lt;사용자 기기 데이터&amp;gt;&amp;gt;" style="text;html=1;align=center;verticalAlign=middle;whiteSpace=wrap;rounded=0;" vertex="1" parent="muqeLboePYQVuT81V_I5-108">
          <mxGeometry x="-131" y="472" width="130" height="30" as="geometry" />
        </mxCell>
        <mxCell id="muqeLboePYQVuT81V_I5-113" value="" style="rhombus;whiteSpace=wrap;html=1;" vertex="1" parent="muqeLboePYQVuT81V_I5-108">
          <mxGeometry x="30" y="382" width="35" height="35" as="geometry" />
        </mxCell>
        <mxCell id="muqeLboePYQVuT81V_I5-114" value="어느 쪽 데이터가&lt;div&gt;최신인가?&lt;/div&gt;" style="text;html=1;align=left;verticalAlign=middle;whiteSpace=wrap;rounded=0;" vertex="1" parent="muqeLboePYQVuT81V_I5-108">
          <mxGeometry x="53" y="352" width="110" height="30" as="geometry" />
        </mxCell>
        <mxCell id="muqeLboePYQVuT81V_I5-115" value="데이터 변경사항&#xa;체크" style="rounded=1;" vertex="1" parent="muqeLboePYQVuT81V_I5-108">
          <mxGeometry x="20" y="282" width="110" height="50" as="geometry" />
        </mxCell>
        <mxCell id="muqeLboePYQVuT81V_I5-116" value="" style="endArrow=open;strokeColor=#FF0000;endFill=1;rounded=0;entryX=0.5;entryY=0;entryDx=0;entryDy=0;exitX=0.25;exitY=1;exitDx=0;exitDy=0;" edge="1" parent="muqeLboePYQVuT81V_I5-108" source="muqeLboePYQVuT81V_I5-115" target="muqeLboePYQVuT81V_I5-113">
          <mxGeometry relative="1" as="geometry">
            <mxPoint x="47.5" y="347" as="sourcePoint" />
            <mxPoint x="-15" y="544.5" as="targetPoint" />
            <Array as="points" />
          </mxGeometry>
        </mxCell>
        <mxCell id="muqeLboePYQVuT81V_I5-117" value="" style="endArrow=open;strokeColor=#FF0000;endFill=1;rounded=0;entryX=1;entryY=0.5;entryDx=0;entryDy=0;exitX=0.5;exitY=1;exitDx=0;exitDy=0;edgeStyle=orthogonalEdgeStyle;" edge="1" parent="muqeLboePYQVuT81V_I5-108" source="muqeLboePYQVuT81V_I5-113" target="muqeLboePYQVuT81V_I5-109">
          <mxGeometry relative="1" as="geometry">
            <mxPoint x="100" y="422" as="sourcePoint" />
            <mxPoint x="58" y="382" as="targetPoint" />
          </mxGeometry>
        </mxCell>
        <mxCell id="muqeLboePYQVuT81V_I5-118" value="" style="endArrow=open;strokeColor=#FF0000;endFill=1;rounded=0;entryX=1;entryY=0.5;entryDx=0;entryDy=0;exitX=0;exitY=0.5;exitDx=0;exitDy=0;edgeStyle=orthogonalEdgeStyle;" edge="1" parent="muqeLboePYQVuT81V_I5-108" source="muqeLboePYQVuT81V_I5-113" target="muqeLboePYQVuT81V_I5-110">
          <mxGeometry relative="1" as="geometry">
            <mxPoint x="58" y="437" as="sourcePoint" />
            <mxPoint x="-130" y="507" as="targetPoint" />
          </mxGeometry>
        </mxCell>
        <mxCell id="muqeLboePYQVuT81V_I5-119" value="" style="edgeStyle=none;curved=1;rounded=0;orthogonalLoop=1;jettySize=auto;html=1;fontSize=12;startSize=8;endSize=8;strokeColor=#FF0000;endArrow=open;endFill=0;entryX=0;entryY=0.5;entryDx=0;entryDy=0;" edge="1" parent="1" source="muqeLboePYQVuT81V_I5-96" target="muqeLboePYQVuT81V_I5-129">
          <mxGeometry relative="1" as="geometry" />
        </mxCell>
        <mxCell id="muqeLboePYQVuT81V_I5-120" value="" style="edgeStyle=orthogonalEdgeStyle;rounded=0;orthogonalLoop=1;jettySize=auto;html=1;endArrow=open;endFill=0;strokeColor=#FF0000;entryX=1;entryY=0.5;entryDx=0;entryDy=0;exitX=0;exitY=0.5;exitDx=0;exitDy=0;" edge="1" parent="1" source="muqeLboePYQVuT81V_I5-103" target="muqeLboePYQVuT81V_I5-97">
          <mxGeometry relative="1" as="geometry">
            <mxPoint x="405.5" y="245" as="sourcePoint" />
            <mxPoint x="594.5" y="270" as="targetPoint" />
          </mxGeometry>
        </mxCell>
        <mxCell id="muqeLboePYQVuT81V_I5-121" value="" style="edgeStyle=orthogonalEdgeStyle;rounded=0;orthogonalLoop=1;jettySize=auto;html=1;endArrow=open;endFill=0;strokeColor=#FF0000;exitX=1;exitY=0.5;exitDx=0;exitDy=0;entryX=0;entryY=0.5;entryDx=0;entryDy=0;" edge="1" parent="1" source="muqeLboePYQVuT81V_I5-123" target="muqeLboePYQVuT81V_I5-115">
          <mxGeometry relative="1" as="geometry">
            <mxPoint x="576.5" y="368" as="sourcePoint" />
            <mxPoint x="366.5" y="430" as="targetPoint" />
          </mxGeometry>
        </mxCell>
        <mxCell id="muqeLboePYQVuT81V_I5-122" value="" style="edgeStyle=orthogonalEdgeStyle;rounded=0;orthogonalLoop=1;jettySize=auto;html=1;endArrow=open;endFill=0;strokeColor=#FF0000;exitX=0.5;exitY=1;exitDx=0;exitDy=0;entryX=0;entryY=0.5;entryDx=0;entryDy=0;" edge="1" parent="1" source="muqeLboePYQVuT81V_I5-97" target="muqeLboePYQVuT81V_I5-123">
          <mxGeometry relative="1" as="geometry">
            <mxPoint x="182" y="383" as="sourcePoint" />
            <mxPoint x="557" y="425" as="targetPoint" />
          </mxGeometry>
        </mxCell>
        <mxCell id="muqeLboePYQVuT81V_I5-123" value="서버에 요청 전송" style="rounded=1;" vertex="1" parent="1">
          <mxGeometry x="296.5" y="400" width="110" height="50" as="geometry" />
        </mxCell>
        <mxCell id="muqeLboePYQVuT81V_I5-124" value="" style="endArrow=open;strokeColor=#FF0000;endFill=1;rounded=0;entryX=0.5;entryY=0;entryDx=0;entryDy=0;exitX=0.5;exitY=1;exitDx=0;exitDy=0;" edge="1" parent="1" source="muqeLboePYQVuT81V_I5-103" target="muqeLboePYQVuT81V_I5-123">
          <mxGeometry relative="1" as="geometry">
            <mxPoint x="334.5" y="415" as="sourcePoint" />
            <mxPoint x="324" y="355" as="targetPoint" />
            <Array as="points" />
          </mxGeometry>
        </mxCell>
        <mxCell id="muqeLboePYQVuT81V_I5-125" value="" style="endArrow=open;strokeColor=#FF0000;endFill=1;rounded=0;entryX=1;entryY=0.5;entryDx=0;entryDy=0;exitX=0;exitY=0.5;exitDx=0;exitDy=0;edgeStyle=orthogonalEdgeStyle;" edge="1" parent="1" source="muqeLboePYQVuT81V_I5-109" target="muqeLboePYQVuT81V_I5-99">
          <mxGeometry relative="1" as="geometry">
            <mxPoint x="474.5" y="610" as="sourcePoint" />
            <mxPoint x="238.75" y="615" as="targetPoint" />
          </mxGeometry>
        </mxCell>
        <mxCell id="muqeLboePYQVuT81V_I5-126" value="" style="endArrow=open;strokeColor=#FF0000;endFill=1;rounded=0;entryX=1;entryY=0.5;entryDx=0;entryDy=0;exitX=0;exitY=0.5;exitDx=0;exitDy=0;edgeStyle=orthogonalEdgeStyle;" edge="1" parent="1" source="muqeLboePYQVuT81V_I5-110" target="muqeLboePYQVuT81V_I5-99">
          <mxGeometry relative="1" as="geometry">
            <mxPoint x="305.5" y="625" as="sourcePoint" />
            <mxPoint x="261.5" y="695" as="targetPoint" />
          </mxGeometry>
        </mxCell>
        <mxCell id="muqeLboePYQVuT81V_I5-127" value="" style="endArrow=open;strokeColor=#FF0000;endFill=1;rounded=0;entryX=1;entryY=0.5;entryDx=0;entryDy=0;exitX=1;exitY=0.5;exitDx=0;exitDy=0;edgeStyle=orthogonalEdgeStyle;" edge="1" parent="1" source="muqeLboePYQVuT81V_I5-113" target="muqeLboePYQVuT81V_I5-99">
          <mxGeometry relative="1" as="geometry">
            <mxPoint x="666.5" y="590" as="sourcePoint" />
            <mxPoint x="622.5" y="757" as="targetPoint" />
          </mxGeometry>
        </mxCell>
        <mxCell id="muqeLboePYQVuT81V_I5-128" value="" style="endArrow=open;strokeColor=#FF0000;endFill=1;rounded=0;exitX=0.5;exitY=1;exitDx=0;exitDy=0;" edge="1" parent="1" source="muqeLboePYQVuT81V_I5-129" target="muqeLboePYQVuT81V_I5-103">
          <mxGeometry relative="1" as="geometry">
            <mxPoint x="173.5" y="315" as="sourcePoint" />
            <mxPoint x="173.5" y="365" as="targetPoint" />
            <Array as="points" />
          </mxGeometry>
        </mxCell>
        <mxCell id="muqeLboePYQVuT81V_I5-129" value="로그인 체크" style="rounded=1;" vertex="1" parent="1">
          <mxGeometry x="296.5" y="210" width="110" height="50" as="geometry" />
        </mxCell>
      </root>
    </mxGraphModel>
  </diagram>
</mxfile>
